<svg width="40" height="36" viewBox="0 0 40 36" fill="none" xmlns="http://www.w3.org/2000/svg">
<path fill="#D32600" d="M3.49914 15.243H10.7768C10.6899 16.3209 10.7923 17.4098 11.0833 18.4598C11.3453 19.4047 11.7545 20.298 12.2925 21.1082C11.6231 21.3393 10.9897 21.6757 10.4178 22.1091C9.50717 22.7993 8.79108 23.7058 8.3302 24.7398C5.9608 24.6475 4.23399 24.1412 3.09976 23.3488C1.91244 22.5194 1.25 21.2926 1.25 19.4903V17.4913C1.25 16.2509 2.25767 15.243 3.49914 15.243ZM29.7591 22.2604C29.1419 21.7569 28.4443 21.3694 27.7002 21.1114C28.1919 20.373 28.5769 19.5641 28.84 18.7081C29.1856 17.5834 29.3115 16.4078 29.2161 15.2447L36.4911 15.243C36.4911 15.243 36.4912 15.243 36.4913 15.243C37.7323 15.2431 38.7396 16.2504 38.7402 17.4902C38.7402 17.4905 38.7402 17.4909 38.7402 17.4913L38.7382 19.413L38.7382 19.447L38.74 19.481C38.8373 21.3024 38.2295 22.5198 37.1005 23.3401C35.97 24.1614 34.1776 24.6839 31.6612 24.7483C31.2325 23.7856 30.5826 22.9322 29.7591 22.2604ZM27.7409 29.408L27.7409 29.442L27.7427 29.476C27.84 31.2974 27.2322 32.5148 26.1032 33.3351C24.8942 34.2135 22.9281 34.75 20.1291 34.75C17.3434 34.75 15.3555 34.2229 14.0971 33.3438C12.9097 32.5144 12.2473 31.2876 12.2473 29.4853V27.4863C12.2473 26.2459 13.255 25.238 14.4964 25.238H25.4938C26.7349 25.238 27.7423 26.2453 27.7429 27.4852C27.7429 27.4855 27.7429 27.4859 27.7429 27.4863L27.7409 29.408ZM19.9951 11.245C20.6187 11.245 21.2362 11.3678 21.8124 11.6064C22.3885 11.845 22.912 12.1947 23.3529 12.6355C23.7939 13.0763 24.1436 13.5996 24.3822 14.1755L25.537 13.6971L24.3822 14.1755C24.6208 14.7514 24.7436 15.3687 24.7436 15.992C24.7436 16.6153 24.6208 17.2326 24.3822 17.8085C24.1436 18.3844 23.7939 18.9077 23.3529 19.3485C22.912 19.7893 22.3885 20.139 21.8124 20.3776C21.2362 20.6162 20.6187 20.739 19.9951 20.739C18.7356 20.739 17.5278 20.2388 16.6373 19.3485C15.7468 18.4583 15.2466 17.2509 15.2466 15.992C15.2466 14.7331 15.7468 13.5257 16.6373 12.6355C17.5278 11.7452 18.7356 11.245 19.9951 11.245ZM8.9978 1.25C10.2573 1.25 11.4651 1.75021 12.3556 2.64048C13.2461 3.53074 13.7463 4.73812 13.7463 5.997C13.7463 7.25588 13.2461 8.46327 12.3556 9.35353C11.4651 10.2438 10.2573 10.744 8.9978 10.744C7.7383 10.744 6.53046 10.2438 5.63996 9.35353C4.74948 8.46327 4.24926 7.25588 4.24926 5.997C4.24926 4.73812 4.74948 3.53074 5.63996 2.64048C6.53046 1.75021 7.7383 1.25 8.9978 1.25ZM30.9924 1.25C32.2519 1.25 33.4597 1.75021 34.3502 2.64048C35.2407 3.53074 35.7409 4.73812 35.7409 5.997C35.7409 7.25588 35.2407 8.46327 34.3502 9.35353C33.4597 10.2438 32.2519 10.744 30.9924 10.744C29.7329 10.744 28.5251 10.2438 27.6346 9.35353C26.7441 8.46327 26.2439 7.25588 26.2439 5.997C26.2439 4.73812 26.7441 3.53074 27.6346 2.64048L26.7704 1.77612L27.6346 2.64048C28.5251 1.75021 29.7329 1.25 30.9924 1.25Z" stroke="#8A8A8A" stroke-width="0"/>
</svg>
