<svg width="64" height="58" viewBox="0 0 64 58" fill="none" xmlns="http://www.w3.org/2000/svg">
<path d="M60 8.28572H45.4L43.28 2.65144C42.9899 1.87285 42.4796 1.20314 41.8158 0.730031C41.152 0.256924 40.3658 0.00247392 39.56 8.68308e-06H24.44C23.6308 -0.00170676 22.8402 0.250796 22.1724 0.724176C21.5047 1.19756 20.9913 1.86955 20.7 2.65144L18.6 8.28572H4C2.93913 8.28572 1.92172 8.7222 1.17157 9.49914C0.421427 10.2761 0 11.3298 0 12.4286V53.8571C0 54.9559 0.421427 56.0096 1.17157 56.7866C1.92172 57.5635 2.93913 58 4 58H60C61.0609 58 62.0783 57.5635 62.8284 56.7866C63.5786 56.0096 64 54.9559 64 53.8571V12.4286C64 11.3298 63.5786 10.2761 62.8284 9.49914C62.0783 8.7222 61.0609 8.28572 60 8.28572ZM8.34 19.9479C7.91565 19.9479 7.50869 19.7733 7.20863 19.4625C6.90857 19.1517 6.74 18.7302 6.74 18.2907C6.74 17.8512 6.90857 17.4297 7.20863 17.1189C7.50869 16.8082 7.91565 16.6336 8.34 16.6336H13.14C13.5643 16.6336 13.9713 16.8082 14.2714 17.1189C14.5714 17.4297 14.74 17.8512 14.74 18.2907C14.74 18.7302 14.5714 19.1517 14.2714 19.4625C13.9713 19.7733 13.5643 19.9479 13.14 19.9479H8.34ZM32 49.7143C28.4399 49.7143 24.9598 48.6209 21.9997 46.5724C19.0396 44.5239 16.7325 41.6123 15.3702 38.2057C14.0078 34.7992 13.6513 31.0508 14.3459 27.4344C15.0404 23.818 16.7547 20.4962 19.2721 17.8889C21.7894 15.2817 24.9967 13.5061 28.4884 12.7868C31.98 12.0675 35.5992 12.4366 38.8883 13.8477C42.1774 15.2587 44.9886 17.6482 46.9665 20.714C48.9443 23.7798 50 27.3842 50 31.0714C50 36.0158 48.1036 40.7577 44.7279 44.2539C41.3523 47.7501 36.7739 49.7143 32 49.7143Z" fill="#C2B4B4"></path>
<path d="M18 30.6264C18.004 33.231 18.7795 35.78 20.2347 37.9725C21.69 40.1651 23.7644 41.9096 26.2129 43L28.391 39.6412C27.0642 39.0958 25.8755 38.2794 24.9062 37.2482C23.937 36.217 23.2103 34.9954 22.776 33.6672C22.3417 32.339 22.2101 30.9358 22.3904 29.5539C22.5706 28.1719 23.0582 26.844 23.8199 25.6614C24.5816 24.4788 25.5993 23.4694 26.8029 22.7026C28.0066 21.9358 29.3679 21.4298 30.7932 21.2193C32.2185 21.0087 33.674 21.0987 35.0599 21.483C36.4458 21.8673 37.7292 22.5368 38.8219 23.4455L41 20.0481C38.9303 18.4248 36.4269 17.4013 33.7798 17.0961C31.1327 16.7908 28.4502 17.2164 26.0432 18.3235C23.6362 19.4305 21.6031 21.1737 20.1796 23.3512C18.7561 25.5286 18.0004 28.0511 18 30.6264Z" fill="#C2B4B4"></path>
</svg>