<svg width="46" height="57" viewBox="0 0 46 57" fill="none" xmlns="http://www.w3.org/2000/svg">
<path d="M30.3637 25.2966C30.4697 25.3326 30.5787 25.3496 30.6847 25.3496C31.1017 25.3496 31.4907 25.0876 31.6317 24.6706C31.9447 23.7526 32.9457 23.2596 33.8637 23.5706C35.8257 24.2346 37.9667 23.1816 38.6317 21.2186C38.8097 20.6966 38.5297 20.1276 38.0067 19.9496C37.4817 19.7726 36.9157 20.0526 36.7377 20.5756C36.4257 21.4946 35.4247 21.9876 34.5057 21.6756C32.5467 21.0146 30.4037 22.0656 29.7377 24.0276C29.5607 24.5506 29.8407 25.1186 30.3637 25.2966Z" fill="#7A7A7A"/>
<path d="M32.7294 18.328C32.8354 18.364 32.9444 18.381 33.0504 18.381C33.4674 18.381 33.8564 18.119 33.9974 17.702C34.1484 17.257 34.4634 16.897 34.8854 16.689C35.3074 16.481 35.7844 16.451 36.2294 16.602C38.1914 17.266 40.3314 16.213 40.9974 14.249C41.1754 13.727 40.8944 13.158 40.3724 12.98C39.8494 12.8 39.2814 13.083 39.1044 13.606C38.7924 14.526 37.7934 15.019 36.8724 14.707C35.9204 14.384 34.9014 14.45 34.0014 14.895C33.1014 15.339 32.4274 16.108 32.1044 17.059C31.9264 17.582 32.2064 18.15 32.7294 18.328Z" fill="#7A7A7A"/>
<path d="M35.0946 11.36C35.2016 11.396 35.3096 11.413 35.4166 11.413C35.8336 11.413 36.2226 11.151 36.3636 10.734C36.5936 10.056 37.3346 9.69102 38.0116 9.92102C38.8466 10.204 39.7416 10.146 40.5326 9.75702C41.3226 9.36702 41.9136 8.69302 42.1976 7.85802C42.3756 7.33602 42.0956 6.76702 41.5726 6.58902C41.0476 6.41002 40.4816 6.69202 40.3036 7.21502C40.1916 7.54402 39.9586 7.81002 39.6476 7.96302C39.3366 8.11602 38.9846 8.13902 38.6546 8.02602C36.9326 7.44502 35.0536 8.36902 34.4696 10.09C34.2916 10.614 34.5716 11.182 35.0946 11.36Z" fill="#7A7A7A"/>
<path d="M41.7656 25.0183C43.7546 18.5583 44.8446 12.2283 45.0006 6.20131C45.0456 4.47331 44.2926 2.51031 43.1286 1.31531C41.7396 -0.109688 39.8506 -0.400688 37.9866 0.559312C34.9996 2.10031 32.8636 6.63331 31.1476 10.2773C31.0486 10.4873 30.9516 10.6923 30.8556 10.8953C30.4766 9.15231 29.3246 7.66131 27.6866 6.88331C27.3006 5.02731 25.8286 3.57331 23.9786 3.19631C23.9586 3.09231 23.9336 2.99031 23.9026 2.88731C23.5216 1.58531 22.3716 0.605311 21.0436 0.447311C20.2756 0.353311 19.5476 0.515312 18.9176 0.883312C18.3776 0.583311 17.7716 0.423312 17.1496 0.423312C15.4106 0.423312 13.9496 1.63631 13.5686 3.25931C11.6676 3.77731 10.2736 5.52231 10.2586 7.55031C8.08956 8.11031 6.50956 10.0703 6.50956 12.4013C6.50956 13.0193 6.62557 13.6313 6.84857 14.2083C6.28557 14.9033 5.97357 15.7733 5.97357 16.6863C5.97357 17.2343 6.08656 17.7623 6.29956 18.2503C5.30056 17.1603 3.89457 16.2693 2.31557 16.3273C1.76357 16.3453 1.32957 16.8063 1.34657 17.3583C1.36357 17.8993 1.80757 18.3273 2.34557 18.3273C2.37957 18.3283 2.41057 18.3253 2.44257 18.3253C3.37957 18.3253 4.25056 18.9453 4.88456 19.6653C3.29856 20.1223 1.38656 20.8663 0.494565 22.5483C-0.0414352 23.5593 -0.104435 24.8003 0.248565 26.2203C0.070565 26.5113 -0.0164348 26.8523 0.00256515 27.2173L1.70456 51.4053C1.85956 54.4383 4.35957 56.8133 7.39557 56.8133H35.4666C38.5026 56.8133 41.0026 54.4383 41.1566 51.4233L42.9026 26.3773C42.9216 26.0193 42.7906 25.6633 42.5436 25.4033C42.3406 25.1843 42.0586 25.0583 41.7656 25.0183ZM31.6726 13.7563C32.0686 13.0173 32.5006 12.1013 32.9576 11.1303C34.4606 7.93831 36.5206 3.56731 38.9036 2.33731C39.9836 1.78131 40.9066 1.90131 41.6966 2.71131C42.5886 3.62531 43.0276 5.13331 43.0016 6.14931C42.8486 12.0613 41.7686 18.2833 39.7906 24.6433C39.7256 24.8523 39.5816 25.2743 39.3766 25.8533L37.6726 26.6103C37.6356 26.6273 37.5996 26.6453 37.5646 26.6673C37.0826 26.9563 36.5256 27.0993 35.9686 27.1053C35.4116 27.0993 34.8556 26.9563 34.3736 26.6673L33.6606 26.2393C32.8576 25.7583 31.9386 25.5033 31.0026 25.5033C30.7496 25.5033 30.4986 25.5253 30.2506 25.5623C29.5576 25.6513 28.8816 25.8773 28.2776 26.2403L27.5656 26.6683C27.1766 26.9013 26.7356 27.0153 26.2886 27.0643C26.3106 26.9893 26.3356 26.9153 26.3576 26.8403C26.6346 25.8963 26.9336 24.9653 27.2456 24.0423C27.3596 23.7043 27.4786 23.3693 27.5986 23.0343C27.8596 22.3003 28.1326 21.5743 28.4146 20.8553C28.5356 20.5483 28.6516 20.2373 28.7766 19.9333C29.6486 17.8003 30.6116 15.7353 31.6726 13.7563ZM20.1186 25.5873C20.0086 25.6063 19.8996 25.6263 19.7916 25.6523C19.4616 25.7253 19.1376 25.8243 18.8266 25.9613L18.6346 25.0833C18.9226 25.1073 19.2096 25.1313 19.4786 25.1313C21.2226 25.1313 22.6266 24.6123 24.2406 23.4643C24.7486 23.1023 25.1986 22.8283 25.6266 22.6013C25.5346 22.8623 25.4436 23.1223 25.3546 23.3843C25.2906 23.5723 25.2216 23.7573 25.1596 23.9463C24.8656 24.8363 24.5856 25.7333 24.3246 26.6383L23.6596 26.2403C22.8566 25.7593 21.9376 25.5043 21.0016 25.5043C20.7596 25.5043 20.5206 25.5273 20.2826 25.5613C20.2286 25.5673 20.1736 25.5793 20.1186 25.5873ZM18.5296 12.0713C18.3056 12.1173 18.0836 11.9673 18.0376 11.7553C17.9896 11.5363 18.1346 11.3113 18.3536 11.2633L23.9636 10.0463C24.1576 10.0463 24.3276 10.1833 24.3686 10.3713C24.4006 10.5153 24.3466 10.6283 24.3106 10.6833C24.2756 10.7373 24.1966 10.8323 24.0526 10.8643L18.5296 12.0713ZM18.9236 16.1273C19.0406 15.9773 19.1546 15.8313 19.2646 15.6853C19.3436 15.5803 19.4126 15.4713 19.4706 15.3623C19.7166 14.8993 19.7746 14.3803 19.6606 13.8713L23.8346 12.9593C23.8626 13.0873 23.8926 13.2143 23.9406 13.3323C24.1276 13.7903 24.4616 14.1713 24.9266 14.4373C25.0786 14.5213 25.2376 14.6053 25.4016 14.6923C25.5366 14.7633 25.6716 14.8373 25.8076 14.9113C25.8726 14.9463 25.9386 14.9813 26.0036 15.0173C26.1226 15.0843 26.2376 15.1583 26.3536 15.2313C26.4526 15.2923 26.5506 15.3553 26.6466 15.4223C26.7576 15.4993 26.8636 15.5843 26.9696 15.6703C27.0626 15.7463 27.1516 15.8293 27.2396 15.9143C27.3346 16.0073 27.4286 16.1023 27.5156 16.2063C27.6696 16.3903 27.8176 16.5813 27.9386 16.8103C27.5146 17.7463 27.1156 18.7013 26.7296 19.6643C26.6696 19.8133 26.6056 19.9583 26.5466 20.1073C25.4506 20.3853 24.3916 20.9053 23.0836 21.8363C21.4356 23.0073 20.2086 23.3183 18.1866 23.0253L17.5796 20.2463C17.1676 18.3663 18.0606 17.2283 18.9236 16.1273ZM13.0026 40.9923C13.5546 40.9923 14.0026 41.4393 14.0026 41.9923C14.0026 42.5453 13.5546 42.9923 13.0026 42.9923H6.00256C5.45056 42.9923 5.00256 42.5453 5.00256 41.9923C5.00256 41.4393 5.45056 40.9923 6.00256 40.9923H13.0026ZM6.00256 44.9923H15.0026C15.5546 44.9923 16.0026 45.4393 16.0026 45.9923C16.0026 46.5453 15.5546 46.9923 15.0026 46.9923H6.00256C5.45056 46.9923 5.00256 46.5453 5.00256 45.9923C5.00256 45.4393 5.45056 44.9923 6.00256 44.9923ZM8.68956 15.1803L9.34456 14.6403L8.91956 13.9073C8.65356 13.4473 8.51256 12.9273 8.51256 12.4013C8.51256 10.7813 9.78157 9.46031 11.4016 9.39231L12.6156 9.34131L12.3326 8.16031C12.2846 7.96231 12.2606 7.76731 12.2606 7.58231C12.2606 6.29431 13.2666 5.20931 14.5506 5.11131L15.4746 5.04131V4.04631C15.5036 3.14731 16.2446 2.42431 17.1516 2.42431C17.6736 2.42431 18.0476 2.66231 18.2686 2.86231L18.9696 3.49531L19.6416 2.83131C19.9486 2.52731 20.3616 2.37931 20.8086 2.43531C21.3446 2.49831 21.8286 2.91631 21.9846 3.45331C22.0376 3.63331 22.0526 3.80731 22.0316 3.98431L21.9146 5.10031H23.0406C24.4776 5.10031 25.6796 6.22331 25.7786 7.65731L25.8236 8.31431L26.4446 8.53231C28.0076 9.08131 29.0356 10.5603 29.0006 12.2153C28.9856 12.9223 28.7576 13.6033 28.3446 14.2003C27.6756 13.6323 26.9546 13.2493 26.3486 12.9303C26.1916 12.8473 26.0396 12.7673 25.8866 12.6823C25.8436 12.6583 25.7916 12.6163 25.7736 12.5113C25.7496 12.3673 25.8036 12.1943 25.9126 12.0673C26.3486 11.5613 26.5236 10.8713 26.3826 10.2203L26.2616 9.66931C26.0166 8.54831 24.8456 7.79131 23.7246 8.04231L23.4576 8.10031C23.4546 8.10131 23.4516 8.10031 23.4496 8.10131L20.5146 8.74331L17.6506 9.36831C16.5026 9.61931 15.7726 10.7573 16.0246 11.9063L16.0846 12.1783V12.1813C16.0846 12.1813 16.0856 12.1833 16.0856 12.1853L16.1446 12.4563C16.2896 13.1223 16.7526 13.6833 17.3816 13.9533C17.5376 14.0203 17.6676 14.1473 17.7126 14.2763C17.7386 14.3503 17.7236 14.3883 17.6656 14.4843C17.5656 14.6173 17.4596 14.7533 17.3506 14.8913C17.2396 15.0323 17.1246 15.1813 17.0086 15.3343C16.9726 15.3813 16.9386 15.4303 16.9026 15.4783C16.8166 15.5943 16.7316 15.7143 16.6456 15.8383C16.6026 15.9013 16.5606 15.9663 16.5176 16.0313C16.4406 16.1503 16.3656 16.2723 16.2926 16.3993C16.2516 16.4703 16.2116 16.5403 16.1716 16.6133C16.0956 16.7543 16.0266 16.9033 15.9596 17.0543C15.9316 17.1173 15.9016 17.1773 15.8756 17.2423C15.7876 17.4613 15.7096 17.6893 15.6466 17.9293C15.6376 17.9653 15.6336 18.0043 15.6246 18.0413C15.5756 18.2473 15.5376 18.4593 15.5116 18.6823C15.5016 18.7703 15.4996 18.8623 15.4936 18.9533C15.4856 19.0713 15.4706 19.1843 15.4706 19.3073C15.4416 19.2693 15.4136 19.2373 15.3846 19.2003C15.3186 19.1143 15.2526 19.0363 15.1866 18.9543C15.0386 18.7713 14.8896 18.5973 14.7406 18.4343C14.6676 18.3543 14.5936 18.2753 14.5206 18.2003C14.3636 18.0403 14.2046 17.8933 14.0466 17.7553C13.9876 17.7043 13.9296 17.6473 13.8706 17.5993C13.6596 17.4273 13.4466 17.2753 13.2316 17.1423C13.1666 17.1023 13.1006 17.0723 13.0356 17.0353C12.8806 16.9483 12.7246 16.8683 12.5676 16.8013C12.4816 16.7643 12.3946 16.7323 12.3076 16.7023C12.1646 16.6513 12.0216 16.6103 11.8776 16.5763C11.7906 16.5553 11.7036 16.5323 11.6166 16.5173C11.4346 16.4863 11.2516 16.4703 11.0676 16.4653C11.0256 16.4643 10.9836 16.4533 10.9416 16.4533C9.90256 16.4533 8.95657 16.8583 8.11757 17.4053C8.02557 17.1793 7.97757 16.9363 7.97757 16.6853C7.97657 16.1013 8.23656 15.5523 8.68956 15.1803ZM2.26456 23.4833C2.68756 22.6863 3.71456 22.0783 5.49756 21.5683C6.33156 21.3303 7.10556 20.8853 7.73356 20.2853C8.01256 20.0183 8.27656 19.7873 8.53156 19.5803C8.75856 19.3953 8.97756 19.2333 9.18856 19.0943C9.19656 19.0893 9.20456 19.0843 9.21256 19.0793C9.63056 18.8073 10.0186 18.6263 10.3816 18.5333C10.3966 18.5293 10.4106 18.5263 10.4256 18.5233C10.6036 18.4813 10.7766 18.4573 10.9436 18.4573C12.2016 18.4573 13.5506 19.7123 14.9536 22.1873C15.6886 23.4843 15.9336 25.3993 15.6146 27.0693C15.5396 27.0623 15.4666 27.0523 15.3926 27.0403C15.0336 26.9713 14.6856 26.8563 14.3736 26.6693L13.6606 26.2413C12.8576 25.7603 11.9386 25.5053 11.0026 25.5053C10.7496 25.5053 10.4986 25.5273 10.2506 25.5643C9.55756 25.6533 8.88156 25.8793 8.27757 26.2423L7.93057 26.4503C7.33757 26.8053 6.65456 26.9843 5.96956 26.9903C5.28456 26.9843 4.60057 26.8063 4.00857 26.4503L2.66157 25.6413C2.48657 25.5373 2.29556 25.4643 2.09756 25.4273C1.93856 24.6333 1.99456 23.9933 2.26456 23.4833ZM17.0026 50.9923H6.00256C5.45056 50.9923 5.00256 50.5453 5.00256 49.9923C5.00256 49.4393 5.45056 48.9923 6.00256 48.9923H17.0026C17.5546 48.9923 18.0026 49.4393 18.0026 49.9923C18.0026 50.5453 17.5546 50.9923 17.0026 50.9923ZM23.0026 50.9923H21.0026C20.4506 50.9923 20.0026 50.5453 20.0026 49.9923C20.0026 49.4393 20.4506 48.9923 21.0026 48.9923H23.0026C23.5546 48.9923 24.0026 49.4393 24.0026 49.9923C24.0026 50.5453 23.5546 50.9923 23.0026 50.9923Z" fill="#7A7A7A"/>
</svg>
