<svg width="48" height="49" viewBox="0 0 48 49" fill="none" xmlns="http://www.w3.org/2000/svg">
<g filter="url(#filter0_d_58_4229)">
<path d="M20.2489 40H20.2488C20.0052 40 19.7697 39.9173 19.5811 39.7664C19.393 39.6159 19.2632 39.4069 19.2118 39.1746C19.2117 39.1743 19.2116 39.1739 19.2115 39.1736L18.3732 35.3142L18.2645 34.8142L17.7954 34.6098C16.7439 34.1515 15.7469 33.5786 14.8228 32.9015L14.4135 32.6016L13.9298 32.7548L10.143 33.9541L10.1427 33.9542C9.91082 34.0277 9.66052 34.0201 9.43371 33.9328C9.207 33.8455 9.01837 33.6842 8.89812 33.4769L8.89739 33.4757L5.14064 27.0217C5.14019 27.0209 5.13975 27.0201 5.1393 27.0194C5.02072 26.8114 4.97656 26.5702 5.01344 26.3348C5.05037 26.099 5.16663 25.8816 5.34452 25.7184C5.34494 25.7181 5.34536 25.7177 5.34578 25.7173L8.28042 23.0549L8.65859 22.7118L8.60243 22.2043C8.47694 21.0701 8.47694 19.9258 8.60243 18.7916L8.65867 18.2834L8.27957 17.9403L5.34541 15.2844C5.34496 15.284 5.34451 15.2836 5.34406 15.2832C5.16597 15.12 5.04958 14.9024 5.01265 14.6664C4.97572 14.4305 5.02017 14.1888 5.13935 13.9806C5.13965 13.98 5.13996 13.9795 5.14026 13.979L8.88977 7.51915L8.88988 7.51896C9.01012 7.31169 9.19876 7.15039 9.42547 7.0631C9.65227 6.97577 9.90257 6.96819 10.1344 7.04171L10.1348 7.04183L13.9216 8.24108L14.4056 8.39438L14.815 8.09404C15.2886 7.74658 15.7796 7.42365 16.2837 7.13246C16.7738 6.85921 17.2768 6.61117 17.7909 6.39014L18.2635 6.18698L18.373 5.68444L19.2138 1.82748C19.2138 1.82737 19.2139 1.82727 19.2139 1.82717C19.2649 1.59457 19.3946 1.38518 19.5827 1.23432L18.9668 0.466195L19.5827 1.23432C19.771 1.08339 20.0062 1.00035 20.2495 1H27.7517C27.9951 1.00035 28.2303 1.08339 28.4185 1.23432C28.6067 1.38525 28.7364 1.59475 28.7875 1.82748L28.7876 1.82823L29.6369 5.68838L29.746 6.1841L30.2105 6.38868C30.7557 6.6288 31.2871 6.897 31.799 7.19481L31.8029 7.19702C32.2795 7.47146 32.7419 7.77341 33.1878 8.09926L33.5967 8.39806L34.0796 8.24523L37.8681 7.04608C37.8682 7.04605 37.8683 7.04601 37.8684 7.04598C38.1 6.97283 38.3499 6.98058 38.5764 7.06786C38.8029 7.15514 38.9913 7.31628 39.1115 7.52333L42.8605 13.9822C42.8608 13.9828 42.8612 13.9834 42.8615 13.984C43.1052 14.4111 43.0212 14.9519 42.6565 15.2858C42.6563 15.2861 42.656 15.2864 42.6557 15.2866L39.7208 17.9492L39.3427 18.2923L39.3988 18.7998C39.5243 19.934 39.5243 21.0783 39.3988 22.2125L39.3427 22.72L39.7208 23.0631L42.6545 25.7246C42.655 25.7251 42.6555 25.7255 42.656 25.726C43.022 26.0627 43.1046 26.6019 42.8617 27.028C42.8613 27.0287 42.8609 27.0294 42.8605 27.0301L39.1115 33.489L39.1114 33.4892C38.9911 33.6965 38.8025 33.8578 38.5758 33.9451C38.349 34.0324 38.0987 34.04 37.8668 33.9665L37.8665 33.9664L34.0797 32.7671L33.596 32.6139L33.1867 32.9138C32.2635 33.5903 31.2673 34.1625 30.2165 34.6198L29.7492 34.8232L29.6392 35.3209L28.7878 39.1729L28.7877 39.1736C28.7365 39.4061 28.6067 39.6154 28.4185 39.7661C28.2302 39.9169 27.9949 39.9998 27.7515 40H20.2489ZM23.9924 11.3C21.5421 11.3 19.1911 12.2679 17.4568 13.9927C15.7223 15.7176 14.7468 18.0582 14.7468 20.5C14.7468 22.9418 15.7223 25.2824 17.4568 27.0073C19.1911 28.7321 21.5421 29.7 23.9924 29.7C26.4427 29.7 28.7937 28.7321 30.528 27.0073C32.2625 25.2824 33.2379 22.9418 33.2379 20.5C33.2379 18.0582 32.2625 15.7176 30.528 13.9927C28.7937 12.2679 26.4427 11.3 23.9924 11.3Z" stroke="#8A8A8A" stroke-width="2" shape-rendering="crispEdges"/>
</g>
<defs>
<filter id="filter0_d_58_4229" x="0" y="0" width="48" height="49" filterUnits="userSpaceOnUse" color-interpolation-filters="sRGB">
<feFlood flood-opacity="0" result="BackgroundImageFix"/>
<feColorMatrix in="SourceAlpha" type="matrix" values="0 0 0 0 0 0 0 0 0 0 0 0 0 0 0 0 0 0 127 0" result="hardAlpha"/>
<feOffset dy="4"/>
<feGaussianBlur stdDeviation="2"/>
<feComposite in2="hardAlpha" operator="out"/>
<feColorMatrix type="matrix" values="0 0 0 0 0 0 0 0 0 0 0 0 0 0 0 0 0 0 0.25 0"/>
<feBlend mode="normal" in2="BackgroundImageFix" result="effect1_dropShadow_58_4229"/>
<feBlend mode="normal" in="SourceGraphic" in2="effect1_dropShadow_58_4229" result="shape"/>
</filter>
</defs>
</svg>
