<svg width="13" height="15" viewBox="0 0 13 15" fill="none" xmlns="http://www.w3.org/2000/svg">
<path d="M11.8604 13.9139C11.5982 14.1778 11.2521 14.3231 10.8954 14.3026C10.5383 14.2913 10.1997 14.12 9.95793 13.8337L6.31534 9.51989L2.36568 13.4954C2.10354 13.7593 1.75343 13.8998 1.39666 13.8793C1.04392 13.8636 0.709389 13.6971 0.467624 13.4108C0.225859 13.1245 0.0970112 12.7422 0.111277 12.3571C0.121515 11.9672 0.278216 11.5976 0.540361 11.3337L4.49002 7.35821L0.847431 3.04439C0.605666 2.75808 0.476818 2.37576 0.495454 1.98624C0.50972 1.60112 0.666422 1.23152 0.928567 0.967662C1.19071 0.7038 1.53646 0.567659 1.89356 0.578979C2.2463 0.594697 2.58486 0.765924 2.82663 1.05224L6.46922 5.36606L10.4189 1.39055C10.681 1.12669 11.0311 0.98615 11.3879 1.00664C11.745 1.01796 12.0836 1.18919 12.3253 1.4755C12.5671 1.76182 12.6919 2.13936 12.6733 2.52888C12.663 2.91878 12.5063 3.28837 12.2442 3.55223L8.29454 7.52774L11.9371 11.8416C12.1789 12.1279 12.3077 12.5102 12.2935 12.8953C12.2789 13.2896 12.1225 13.65 11.8604 13.9139Z" fill="white"/>
</svg>
